<?xml version="1.0" encoding="UTF-8"?>
<svg width="133px" height="38px" viewBox="0 0 133 38" version="1.1" xmlns="http://www.w3.org/2000/svg" xmlns:xlink="http://www.w3.org/1999/xlink">
    <!-- Generator: Sketch 52.6 (67491) - http://www.bohemiancoding.com/sketch -->
    <title>Group 3</title>
    <desc>Created with Sketch.</desc>
    <defs>
        <linearGradient x1="28.898738%" y1="0%" x2="71.5970553%" y2="100%" id="linearGradient-1">
            <stop stop-color="#DF00FF" offset="0%"></stop>
            <stop stop-color="#1800FF" offset="100%"></stop>
        </linearGradient>
    </defs>
    <g id="Page-1" stroke="none" stroke-width="1" fill="none" fill-rule="evenodd">
        <g id="Artboard" transform="translate(-388.000000, -37.000000)">
            <g id="Group-3" transform="translate(388.000000, 37.000000)">
                <g id="Group" transform="translate(0.000000, 16.000000)" fill="#676767">
                    <path d="M0.0553950483,21.3891979 L0.0553950483,0.563525626 L10.8394583,0.563525626 L10.8394583,1.82760285 L1.43719703,1.82760285 L1.43719703,10.1073087 L9.39757799,10.1073087 L9.39757799,11.3713859 L1.43719703,11.3713859 L1.43719703,21.3891979 L0.0553950483,21.3891979 Z M15.976157,21.7684211 C13.6931798,21.7684211 11.8007119,20.4727419 11.8007119,17.5969662 C11.8007119,14.2471616 14.6844725,12.6354631 21.1128556,11.8770168 C21.1428948,9.57007584 20.5421113,7.07352333 17.6883899,7.07352333 C15.7658828,7.07352333 14.083689,8.08478511 13.0923963,8.84323144 L12.4916128,7.80036773 C13.5129447,7.0419214 15.5255694,5.84104803 17.8686249,5.84104803 C21.2630515,5.84104803 22.4345793,8.43240634 22.4345793,11.6874052 L22.4345793,21.3891979 L21.2930907,21.3891979 L21.172934,19.4298782 L21.0828165,19.4298782 C19.610897,20.6623535 17.8686249,21.7684211 15.976157,21.7684211 Z M16.2164704,20.5675477 C17.8686249,20.5675477 19.3105052,19.7142956 21.1128556,18.1025971 L21.1128556,12.9514824 C15.1650993,13.6783268 13.1524747,15.1320156 13.1524747,17.5337624 C13.1524747,19.7142956 14.5643158,20.5675477 16.2164704,20.5675477 Z M27.0906511,21.3891979 L27.0906511,6.2202712 L28.2321397,6.2202712 L28.3522964,8.55881407 L28.4424139,8.55881407 C29.9143334,7.01031947 31.4162921,5.84104803 33.3988776,5.84104803 C36.3727557,5.84104803 37.7545577,7.73716387 37.7545577,11.6558033 L37.7545577,21.3891979 L36.4328341,21.3891979 L36.4328341,11.8454148 C36.4328341,8.62201793 35.4715805,7.10512526 33.128525,7.10512526 C31.4162921,7.10512526 30.184686,8.05318318 28.4123748,9.94929901 L28.4123748,21.3891979 L27.0906511,21.3891979 Z M42.7410605,21.3891979 L42.7410605,0.563525626 L44.6936068,0.563525626 L48.8390127,12.7934728 C49.3496786,14.3103654 49.8903838,15.85886 50.4010497,17.4073546 L50.5212064,17.4073546 C51.0318724,15.85886 51.5124991,14.3103654 52.0231651,12.7934728 L56.1385318,0.563525626 L58.1211173,0.563525626 L58.1211173,21.3891979 L56.7693545,21.3891979 L56.7693545,7.70556194 C56.7693545,5.99905769 56.859472,3.81852448 56.9495895,2.08041829 L56.8294328,2.08041829 L55.297435,6.72590209 L51.0318724,19.1138589 L49.8303054,19.1138589 L45.5347036,6.72590209 L43.9726666,2.08041829 L43.8525099,2.08041829 C43.9125883,3.81852448 44.0327449,5.99905769 44.0327449,7.70556194 L44.0327449,21.3891979 L42.7410605,21.3891979 Z M66.4720075,21.7684211 C64.1890303,21.7684211 62.2965624,20.4727419 62.2965624,17.5969662 C62.2965624,14.2471616 65.180323,12.6354631 71.6087062,11.8770168 C71.6387453,9.57007584 71.0379619,7.07352333 68.1842404,7.07352333 C66.2617333,7.07352333 64.5795396,8.08478511 63.5882469,8.84323144 L62.9874634,7.80036773 C64.0087953,7.0419214 66.0214199,5.84104803 68.3644754,5.84104803 C71.758902,5.84104803 72.9304298,8.43240634 72.9304298,11.6874052 L72.9304298,21.3891979 L71.7889412,21.3891979 L71.6687845,19.4298782 L71.578667,19.4298782 C70.1067475,20.6623535 68.3644754,21.7684211 66.4720075,21.7684211 Z M66.7123209,20.5675477 C68.3644754,20.5675477 69.8063558,19.7142956 71.6087062,18.1025971 L71.6087062,12.9514824 C65.6609498,13.6783268 63.6483252,15.1320156 63.6483252,17.5337624 C63.6483252,19.7142956 65.0601664,20.5675477 66.7123209,20.5675477 Z M81.1912025,21.7684211 C78.3975594,21.7684211 77.5865017,19.9039071 77.5865017,17.1861411 L77.5865017,7.42114456 L75.3335637,7.42114456 L75.3335637,6.34667892 L77.6165408,6.2202712 L77.7967759,1.82760285 L78.9382645,1.82760285 L78.9382645,6.2202712 L83.1137096,6.2202712 L83.1137096,7.42114456 L78.9382645,7.42114456 L78.9382645,17.3125488 C78.9382645,19.2402666 79.3888521,20.5359458 81.3714375,20.5359458 C81.9121426,20.5359458 82.663122,20.3147322 83.1737879,20.0619168 L83.534258,21.1995863 C82.6931612,21.5156056 81.791986,21.7684211 81.1912025,21.7684211 Z M86.1476661,21.3891979 L86.1476661,6.2202712 L87.4693897,6.2202712 L87.4693897,21.3891979 L86.1476661,21.3891979 Z M86.8385671,2.55444725 C86.1777053,2.55444725 85.6370001,2.04881636 85.6370001,1.32197196 C85.6370001,0.531923696 86.1777053,0.0578947368 86.8385671,0.0578947368 C87.4994289,0.0578947368 88.040134,0.531923696 88.040134,1.32197196 C88.040134,2.04881636 87.4994289,2.55444725 86.8385671,2.55444725 Z M97.8929829,21.7684211 C94.1681254,21.7684211 91.3444431,18.8610434 91.3444431,13.8363365 C91.3444431,8.74842565 94.4084388,5.84104803 97.9230221,5.84104803 C99.9056075,5.84104803 101.167253,6.75750402 102.158546,7.70556194 L101.377527,8.68522179 C100.446313,7.7687658 99.3649024,7.07352333 97.9530613,7.07352333 C95.0092223,7.07352333 92.7262451,9.82289129 92.7262451,13.8363365 C92.7262451,17.8181797 94.798948,20.5359458 97.9530613,20.5359458 C99.4850591,20.5359458 100.806783,19.7458975 101.798075,18.7978396 L102.488976,19.7774994 C101.25737,20.9151689 99.7253725,21.7684211 97.8929829,21.7684211 Z M109.037516,21.7684211 C106.904735,21.7684211 105.042306,20.8203631 103.750622,19.6826936 L104.53164,18.6398299 C105.763246,19.7142956 107.054931,20.5675477 109.127634,20.5675477 C111.380572,20.5675477 112.5521,19.1770627 112.5521,17.5653643 C112.5521,15.6692484 110.689671,14.8475983 109.037516,14.2155596 C106.844657,13.3939094 104.441523,12.4774535 104.441523,9.88609515 C104.441523,7.67396001 106.093677,5.84104803 109.097595,5.84104803 C110.629592,5.84104803 112.16159,6.50468858 113.212961,7.42114456 L112.492021,8.40080441 C111.530768,7.64235808 110.509436,7.0419214 109.037516,7.0419214 C106.814617,7.0419214 105.793286,8.40080441 105.793286,9.79128936 C105.793286,11.5293955 107.475479,12.1930361 109.187712,12.8566766 C111.44065,13.7415307 113.903862,14.5315789 113.903862,17.5021604 C113.903862,19.7774994 112.16159,21.7684211 109.037516,21.7684211 Z" id="FanMatics"></path>
                </g>
                <polygon id="Polygon" fill="url(#linearGradient-1)" opacity="0.617474724" points="123.5 0 133 10 123.5 20 114 10"></polygon>
            </g>
        </g>
    </g>
</svg>