<?xml version="1.0" encoding="UTF-8"?>
<svg width="46px" height="43px" viewBox="0 0 46 43" version="1.1" xmlns="http://www.w3.org/2000/svg" xmlns:xlink="http://www.w3.org/1999/xlink">
    <!-- Generator: Sketch 52.6 (67491) - http://www.bohemiancoding.com/sketch -->
    <title>1f4ac</title>
    <desc>Created with Sketch.</desc>
    <defs>
        <polygon id="path-1" points="0 47.5 47.5 47.5 47.5 0 0 0"></polygon>
        <linearGradient x1="28.898738%" y1="0%" x2="71.5970553%" y2="100%" id="linearGradient-3">
            <stop stop-color="#DF00FF" offset="0%"></stop>
            <stop stop-color="#1800FF" offset="100%"></stop>
        </linearGradient>
    </defs>
    <g id="Page-1" stroke="none" stroke-width="1" fill="none" fill-rule="evenodd">
        <g id="10" transform="translate(-411.000000, -366.000000)">
            <g id="Group-5" transform="translate(385.000000, 214.000000)">
                <g id="Group-4" transform="translate(25.000000, 137.000000)">
                    <g id="1f4ac" transform="translate(0.000000, 12.000000)">
                        <g id="g10" transform="translate(24.000000, 24.500000) scale(-1, 1) rotate(-180.000000) translate(-24.000000, -24.500000) translate(0.000000, 0.500000)">
                            <g id="g12">
                                <g id="g14-Clipped">
                                    <mask id="mask-2" fill="white">
                                        <use xlink:href="#path-1"></use>
                                    </mask>
                                    <g id="path18"></g>
                                    <g id="g14" mask="url(#mask-2)" opacity="0.617474724">
                                        <g transform="translate(1.250000, 2.500000)" id="g20">
                                            <g>
                                                <path d="M22.5,42.5 C10.07375,42.5 0,34.665 0,25 C0,19.54 3.2175,14.665 8.255,11.45625 C7.6,8.57 6.07375,4.28875 2.5,0 C9.6975,1.2 14.29875,4.70125 17.145,8.02 C18.865,7.6925 20.65125,7.5 22.5,7.5 C34.92625,7.5 45,15.335 45,25 C45,34.665 34.92625,42.5 22.5,42.5" id="path22" fill="url(#linearGradient-3)"></path>
                                            </g>
                                        </g>
                                    </g>
                                </g>
                            </g>
                        </g>
                    </g>
                </g>
            </g>
        </g>
    </g>
</svg>